# xmcd CD database file
#
# Track frame offsets:
#	150
#	20658
#	39206
#	55913
#	75663
#	92394
#	106682
#	118775
#	133069
#	147934
#	167062
#	180245
#	197749
#	210929
#
# Disc length: 3110 seconds
#
# Revision: 0
# Processed by: cddbd v1.5.1PL0 Copyright (c) Steve Scherf et al.
# Submitted via: CDex 1.51
#
DISCID=ad0c240e
DTITLE=Mark Jungers - One For The Crow
DYEAR=2004
DGENRE=Country
TTITLE0=Just Can't Wait
TTITLE1=Bucky's Car
TTITLE2=Won't Be Long
TTITLE3=Walking Down The Road
TTITLE4=You Left The First Time
TTITLE5=Guns and Dust
TTITLE6=Deep In My Heart
TTITLE7=We Talk
TTITLE8=Hold On Tight
TTITLE9=Dig
TTITLE10=Learned By Now
TTITLE11=Fences
TTITLE12=Break In
TTITLE13=Fool Like Me
EXTD=YEAR: 2004
EXTT0=
EXTT1=
EXTT2=
EXTT3=
EXTT4=
EXTT5=
EXTT6=
EXTT7=
EXTT8=
EXTT9=
EXTT10=
EXTT11=
EXTT12=
EXTT13=
PLAYORDER=
